<svg width="564" height="421" viewBox="0 0 564 421" fill="none" xmlns="http://www.w3.org/2000/svg">
<g clip-path="url(#clip0_15_53)">
<path d="M560.522 26.1549H200.969C200.18 26.1375 199.554 25.4829 199.571 24.6929C199.588 23.9275 200.204 23.311 200.969 23.2941H560.522C561.312 23.3115 561.938 23.9661 561.921 24.7561C561.904 25.5215 561.287 26.138 560.522 26.1549Z" fill="#E6E6E6"/>
<path d="M264.29 173.149H409.352C409.721 173.149 410.02 173.448 410.02 173.817V258.2C410.02 258.569 409.721 258.868 409.352 258.868H264.29V173.149Z" fill="#E6E6E6"/>
<path d="M409.182 259.324L264.099 173.797L264.481 172.502L409.564 258.03C409.921 258.135 410.125 258.511 410.02 258.868C409.914 259.226 409.539 259.43 409.182 259.324Z" fill="white"/>
<path d="M264.481 259.515L264.099 258.221L409.181 172.693C409.539 172.588 409.914 172.792 410.02 173.149C410.125 173.507 409.921 173.882 409.564 173.988L264.481 259.515Z" fill="white"/>
<path d="M392.877 88.7355H281.27C279.525 88.7355 278.111 90.1503 278.111 91.8955V91.8955C278.111 93.6406 279.525 95.0554 281.27 95.0554H392.877C394.621 95.0554 396.035 93.6406 396.035 91.8955C396.035 90.1503 394.621 88.7355 392.877 88.7355Z" fill="#E6E6E6"/>
<path d="M407.88 108.462H266.266C264.522 108.462 263.108 109.877 263.108 111.622V111.622C263.108 113.367 264.522 114.782 266.266 114.782H407.88C409.625 114.782 411.039 113.367 411.039 111.622C411.039 109.877 409.625 108.462 407.88 108.462Z" fill="#E6E6E6"/>
<path d="M407.88 128.189H266.266C264.522 128.189 263.108 129.604 263.108 131.349C263.108 133.094 264.522 134.509 266.266 134.509H407.88C409.625 134.509 411.039 133.094 411.039 131.349C411.039 129.604 409.625 128.189 407.88 128.189Z" fill="#63BB06"/>
<path d="M542.169 194.782C542.158 219.177 526.748 240.904 503.736 248.972C503.247 249.148 502.758 249.307 502.264 249.461C472.081 259.115 439.79 242.462 430.141 212.266C420.492 182.07 437.138 149.766 467.321 140.113C497.504 130.46 529.795 147.113 539.444 177.309C541.249 182.957 542.168 188.852 542.169 194.782Z" fill="#E6E6E6"/>
<path d="M407.855 135.776C407.624 138.437 409.592 140.781 412.252 141.012C412.535 141.037 412.821 141.036 413.104 141.011L420.17 156.673L424.94 149.126L417.499 135.41C417.082 132.757 414.594 130.945 411.943 131.363C409.725 131.712 408.034 133.537 407.855 135.776Z" fill="#FFB6B6"/>
<path d="M477.483 194.761C477.38 194.298 477.249 193.842 477.09 193.395C476.077 190.516 474.015 188.126 471.315 186.704C471.252 186.667 471.183 186.63 471.119 186.598L438.842 170.214L435.979 164.629L424.409 142.08L421.572 142.925L414.869 144.918L414.714 144.96L425.827 182.373L428.377 184.329L457.259 206.426L458.2 207.149C462.998 210.813 469.753 210.415 474.088 206.213C474.521 205.798 474.92 205.351 475.284 204.874C477.486 201.999 478.292 198.291 477.483 194.761Z" fill="#63BB06"/>
<path d="M495.427 235.851L495.257 229.687L494.768 211.809C496.537 200.367 497.791 199.097 489.26 191.275C488.601 191.133 488.032 190.72 487.693 190.137C486.917 188.554 488.782 185.865 487.172 181.725L474.471 182.453L471.315 186.704L458.619 203.816C458.122 204.662 457.668 205.533 457.259 206.426C451.825 218.234 459.193 224.51 459.767 225.589L463.283 236.67L465.222 247.415L465.849 248.909L467.618 249.557C478.903 253.083 490.999 253.049 502.264 249.461C500.368 244.742 498.081 240.189 495.427 235.851Z" fill="#63BB06"/>
<path d="M520.028 279.31C521.114 276.871 520.018 274.012 517.58 272.925C517.32 272.809 517.05 272.717 516.774 272.648L515.208 255.536L508.235 261.111L510.792 276.507C510.321 279.15 512.081 281.675 514.723 282.146C516.934 282.541 519.127 281.368 520.028 279.31Z" fill="#FFB6B6"/>
<path d="M495.735 195.404C493.893 192.616 490.984 190.711 487.693 190.137C486.988 190.01 486.273 189.946 485.557 189.946C483.171 189.946 480.837 190.651 478.848 191.971C478.217 192.387 477.628 192.864 477.09 193.395C472.262 198.073 472.139 205.78 476.815 210.609L476.819 210.613L495.257 229.687L501.977 236.638L503.736 248.972L506.439 267.95L509.393 268.077L516.384 268.386L516.543 268.391L517.706 241.798L518.248 229.4L495.735 195.404Z" fill="#63BB06"/>
<path d="M470.539 152.554C466.048 161.408 468.981 171.665 477.314 177.058C486.325 182.89 498.024 181.613 501.808 170.28C506.022 157.658 502.56 152.244 495.033 145.775C486.211 138.195 475.39 142.987 470.539 152.554Z" fill="#2F2E41"/>
<path d="M492.643 172.279C487.881 178.524 478.959 179.725 472.716 174.96C466.481 170.202 465.275 161.291 470.02 155.045L470.144 154.883C475.045 148.746 483.991 147.746 490.126 152.649C496.121 157.441 497.234 166.127 492.64 172.276L492.643 172.279Z" fill="#FFB6B6"/>
<path d="M466.187 151.12C468.497 153.32 471.314 154.916 474.387 155.769C475.004 155.056 475.734 154.45 476.549 153.977C476.159 154.789 475.891 155.654 475.755 156.544C477.126 159.39 482.725 161.436 488.076 163.528L495.163 151.015L485.782 145.698C478.244 140.484 469.371 142.709 466.187 151.12Z" fill="#2F2E41"/>
<path d="M500.509 145.791C501.899 145.279 503.454 145.506 504.64 146.395C505.782 147.263 506.705 148.387 507.336 149.676C508.484 151.761 509.308 154.009 509.781 156.342C510.186 158.36 510.117 160.8 508.307 161.854C506.797 162.732 504.637 162.179 503.249 161.006C501.962 159.776 500.987 158.257 500.402 156.575C499.724 154.965 499.084 153.297 497.88 151.96L499.131 152.544C498.735 151.343 498.551 150.083 498.586 148.819C498.644 147.54 499.376 146.387 500.509 145.791Z" fill="#2F2E41"/>
<path d="M484.284 147.431L494.348 153.136C500.015 156.349 502.006 163.549 498.795 169.218C494.14 177.434 484.004 180.762 475.388 176.903L484.584 168.781L472.109 175.14L469.445 173.63C482.825 171.197 485.406 160.697 484.284 147.431Z" fill="#2F2E41"/>
<path d="M503.296 157.458C504.99 159.431 507.642 160.198 510.034 161.224C518.606 164.986 524.769 172.739 526.502 181.941C527.163 185.633 527.077 189.455 528.122 193.055C529.16 196.654 531.732 200.185 535.422 200.81C537.919 201.236 540.423 200.272 542.772 199.319C544.064 198.8 545.356 198.278 546.648 197.755C545.3 194.372 543.955 190.989 542.611 187.606C544.771 190.799 547.282 193.738 550.097 196.369C554.727 194.502 559.362 192.634 564 190.766C552.589 190.81 554.536 179.728 551.983 168.608C550.58 162.498 538.63 158.361 536.288 152.548C532.628 143.434 522.277 139.013 513.167 142.674C509.241 144.252 506.006 147.178 504.044 150.928C501.701 151.861 501.633 155.51 503.296 157.458Z" fill="#2F2E41"/>
<path d="M171.81 264.506C169.672 261.797 170.133 257.868 172.841 255.729C173.103 255.522 173.381 255.336 173.673 255.173L170.415 224.198L178.757 221.189L182.359 258.008C183.807 261.135 182.447 264.845 179.321 266.293C176.705 267.505 173.6 266.766 171.81 264.506Z" fill="#FFB6B6"/>
<path d="M167.349 150.94C167.349 150.94 180.892 157.551 180.936 165.323C180.98 173.094 182.102 180.123 181.042 183.13C179.982 186.137 183.735 207.995 181.978 210.159C180.221 212.324 183.841 213.432 181.939 217.136C180.037 220.84 179.195 221.538 179.892 222.38C180.589 223.223 181.613 239.281 181.613 239.281L170.453 240.677L158.581 188.847L167.349 150.94Z" fill="#3F3D56"/>
<path d="M102.943 267.653C105.481 265.315 105.645 261.362 103.308 258.823C103.082 258.577 102.836 258.349 102.574 258.143L110.674 228.068L102.909 223.782L93.5499 259.572C91.6272 262.431 92.3859 266.309 95.2444 268.232C97.6363 269.842 100.819 269.602 102.943 267.653Z" fill="#FFB6B6"/>
<path d="M125.247 156.211C125.247 156.211 110.831 160.603 109.563 168.27C108.295 175.938 106.079 182.702 106.652 185.839C107.224 188.975 100.073 209.967 101.467 212.382C102.861 214.797 99.112 215.32 100.406 219.278C101.701 223.236 102.422 224.057 101.601 224.779C100.78 225.501 97.2383 241.197 97.2383 241.197L108.038 244.336L127.93 195.026L125.247 156.211Z" fill="#3F3D56"/>
<path d="M180.609 402.203L190.224 402.202L194.798 365.1L180.607 365.1L180.609 402.203Z" fill="#FFB6B6"/>
<path d="M193.424 403.069V396.548L190.896 396.702L180.606 397.312L178.225 397.458L176.404 419.299L176.306 420.47H183.134L183.353 419.307L184.345 414.022L186.905 419.307L187.466 420.47H205.567C207.808 420.456 209.621 418.639 209.63 416.396C210.395 412.826 195.342 405.11 193.424 403.069Z" fill="#2F2E41"/>
<path d="M67.9602 391.732L76.3234 396.479L98.6044 366.467L86.2616 359.462L67.9602 391.732Z" fill="#FFB6B6"/>
<path d="M78.683 398.808L81.8935 393.141L79.634 392.027L70.3764 387.481L68.2306 386.424L57.6889 401.866L55.2098 405.492L58.0139 407.086L61.1432 408.866L65.3859 403.858L64.9145 411.005L79.699 419.404H79.7071L80.6581 419.941C82.6132 421.046 85.0935 420.358 86.2012 418.404C88.6234 415.672 79.3414 401.54 78.683 398.808Z" fill="#2F2E41"/>
<path d="M132.891 220.073C111.58 220.839 104.091 307.763 110.599 309.34L80.2289 365.962L123.456 385.347L151.879 286.616L156.616 322.949L150.3 380.607L178.241 387.367L197.567 385.986C192.545 317.258 180.007 244.772 169.616 216.733L132.891 220.073Z" fill="#2F2E41"/>
<path d="M123.108 226.167L122.968 226.695C136.59 234.277 145.891 232.655 160.781 228.066L171.651 225.78C174.024 222.685 172.09 219.658 169.462 216.71L175.978 163.089C175.934 156.142 170.27 150.546 163.325 150.59C163.04 150.592 162.755 150.603 162.47 150.624L152.682 143.37L138.746 143.851L129.425 154.151L123.856 156.142L119.529 157.685C118.655 158.473 117.7 159.382 116.785 160.384L123.629 201.131L126.54 213.315C122.638 217.767 120.488 222.112 123.108 226.167Z" fill="#3F3D56"/>
<path d="M44.0519 413.74C33.9118 412.532 24.8584 406.81 19.4136 398.167C15.9175 392.495 14.1136 385.759 12.369 379.245C11.861 377.349 11.3361 375.389 10.7802 373.499C9.49433 369.275 10.9069 364.692 14.348 361.926C17.6746 359.136 22.363 358.652 26.1889 360.703L26.5971 360.92L27.3124 377.004C28.3723 374.849 30.6982 369.981 32.541 365.121L32.6955 364.714L33.0486 364.969C36.7534 367.632 40.1082 370.75 43.034 374.252C53.4904 386.969 57.8259 403.643 54.8886 419.846L54.7996 420.323L44.0519 413.74Z" fill="#F2F2F2"/>
<path d="M3.58404e-06 420.205C-0.00129846 420.643 0.352331 420.999 0.789859 421H563.205C563.644 421 564 420.644 564 420.205C564 419.766 563.644 419.41 563.205 419.41H0.794593C0.357045 419.409 0.00130563 419.763 1.02612e-05 420.2L3.58404e-06 420.205Z" fill="#CCCCCC"/>
<path d="M165.532 134.223L165.546 134.219C167.064 133.817 167.968 132.261 167.567 130.743L163.518 115.399C162.796 112.649 161.528 110.073 159.79 107.823C156.391 103.435 151.431 100.528 145.943 99.7087C143.111 99.2888 140.222 99.447 137.453 100.174C126.121 103.147 122.957 106.896 122.317 126.083C121.677 145.27 126.372 141.45 126.372 141.45C126.469 141.82 126.64 142.167 126.873 142.469C127.331 143.059 127.999 143.449 128.737 143.558C129.116 143.613 129.502 143.592 129.872 143.495C144.023 142.038 158.354 140.711 165.535 134.222L165.532 134.223Z" fill="#2F2E41"/>
<path d="M132.263 118.024C130.186 126.41 135.298 134.892 143.68 136.969C147.697 137.965 151.946 137.327 155.493 135.194C159.04 133.077 161.592 129.629 162.581 125.617C164.65 117.229 159.532 108.751 151.148 106.681C147.14 105.691 142.904 106.327 139.363 108.449C135.812 110.563 133.255 114.011 132.263 118.024Z" fill="#FFB6B6"/>
<path d="M168.712 115.363C168.141 113.189 167.138 111.151 165.763 109.372C163.811 104.502 160.748 100.567 154.814 102.956C152.588 102.627 150.319 102.749 148.141 103.315L145.068 104.11C145.033 104.119 144.999 104.128 144.964 104.138C136.026 106.504 130.698 115.671 133.063 124.613L133.144 124.92L139.645 123.231L140.226 116.458L142.305 122.542L145.663 121.671L145.956 118.253L147.005 121.321C153.372 123.795 160.751 121.34 168.791 115.672L168.712 115.363Z" fill="#2F2E41"/>
<path d="M153.797 136.805C154.03 137.274 154.126 137.799 154.075 138.32C154.051 138.586 153.989 138.848 153.892 139.097C153.809 139.31 153.701 139.512 153.571 139.699C153.184 140.252 152.612 140.648 151.959 140.818C151.918 140.828 151.877 140.838 151.836 140.847C151.795 140.855 151.754 140.863 151.712 140.87C151.67 140.878 151.628 140.884 151.586 140.889C151.544 140.894 151.501 140.898 151.458 140.902L149.043 141.092L144.078 135.145L145.718 141.36L134.74 142.24L127.781 115.866L145.371 111.311L145.07 111.93C144.075 114.004 143.672 116.312 143.904 118.601C144.15 120.916 144.791 123.171 145.799 125.27C146.802 127.398 148.007 129.424 149.397 131.322C150.618 133.005 151.936 134.617 153.343 136.149C153.524 136.345 153.677 136.566 153.797 136.805Z" fill="#2F2E41"/>
<path d="M240.884 11.5497C244.003 11.5497 246.531 8.96418 246.531 5.77483C246.531 2.58548 244.003 0 240.884 0C237.766 0 235.238 2.58548 235.238 5.77483C235.238 8.96418 237.766 11.5497 240.884 11.5497Z" fill="#3F3D56"/>
<path d="M260.391 11.5497C263.509 11.5497 266.037 8.96418 266.037 5.77483C266.037 2.58548 263.509 0 260.391 0C257.272 0 254.744 2.58548 254.744 5.77483C254.744 8.96418 257.272 11.5497 260.391 11.5497Z" fill="#3F3D56"/>
<path d="M279.897 11.5497C283.016 11.5497 285.544 8.96418 285.544 5.77483C285.544 2.58548 283.016 0 279.897 0C276.779 0 274.251 2.58548 274.251 5.77483C274.251 8.96418 276.779 11.5497 279.897 11.5497Z" fill="#3F3D56"/>
<path d="M302.14 10.3391C301.966 10.3391 301.793 10.2719 301.662 10.1382L297.852 6.24176C297.598 5.98213 297.598 5.56724 297.852 5.30761L301.662 1.41154C301.921 1.148 302.344 1.14376 302.607 1.40111C302.87 1.65911 302.875 2.08215 302.617 2.34569L299.264 5.77468L302.617 9.20401C302.875 9.46755 302.87 9.89059 302.607 10.1486C302.477 10.2758 302.308 10.3391 302.14 10.3391Z" fill="#3F3D56"/>
<path d="M308.542 10.3391C308.373 10.3391 308.205 10.2758 308.075 10.1486C307.811 9.89059 307.807 9.46788 308.065 9.20401L311.418 5.77469L308.065 2.34569C307.807 2.08215 307.811 1.65911 308.075 1.40111C308.338 1.14278 308.761 1.14768 309.019 1.41154L312.829 5.30761C313.083 5.56724 313.083 5.98213 312.829 6.24176L309.019 10.1382C308.889 10.2719 308.715 10.3391 308.542 10.3391Z" fill="#3F3D56"/>
<path d="M507.862 0.668594H500.777C499.97 0.668594 499.315 1.32321 499.315 2.13149V9.22555C499.315 10.0338 499.97 10.6885 500.777 10.6885H507.862C508.67 10.6885 509.331 10.0338 509.331 9.22555V2.13149C509.331 1.32321 508.67 0.668594 507.862 0.668594Z" fill="#3F3D56"/>
<path d="M490.501 0.668594H483.417C482.609 0.668594 481.955 1.32321 481.955 2.13149V9.22555C481.955 10.0338 482.609 10.6885 483.417 10.6885H490.501C491.309 10.6885 491.97 10.0338 491.97 9.22555V2.13149C491.97 1.32321 491.309 0.668594 490.501 0.668594Z" fill="#3F3D56"/>
<path d="M524.221 1.00259H517.137C516.329 1.00259 515.674 1.65721 515.674 2.46549V9.55955C515.674 10.3678 516.329 11.0225 517.137 11.0225H524.221C525.029 11.0225 525.69 10.3678 525.69 9.55955V2.46549C525.69 1.65721 525.029 1.00259 524.221 1.00259Z" fill="#3F3D56"/>
<path d="M417.439 3.70126H360.81C359.821 3.70126 359.027 4.50286 359.027 5.48483C359.027 6.46679 359.821 7.26835 360.81 7.26835H417.439C418.42 7.26835 419.221 6.46675 419.221 5.48483C419.221 4.5029 418.42 3.70126 417.439 3.70126Z" fill="#3F3D56"/>
</g>
<defs>
<clipPath id="clip0_15_53">
<rect width="564" height="421" fill="white"/>
</clipPath>
</defs>
</svg>
